# Blender3D v248 OBJ File: mydesk.blend
# www.blender3d.org
mtllib mydesk.mtl
o Cube
v -5.764462 -35.942501 29.491627
v -5.764462 -14.434629 29.491627
v 11.716291 -14.434631 29.491627
v -5.764468 -35.942497 -12.146226
v -5.764455 -14.434623 -12.146226
v 11.716294 -14.434633 -12.146226
v 8.306890 -5.693548 -12.411117
v -7.303257 -13.608604 -12.411117
v -7.303257 -5.693547 -12.411117
v 8.306890 -5.693548 -0.301284
v -7.303257 -13.608604 -0.301284
v -7.303257 -5.693547 -0.301284
v 8.306890 9.158485 -12.411117
v -7.303257 9.158485 -12.411117
v -7.303257 17.073544 -12.411117
v 8.306889 9.158484 -0.253846
v -7.303257 9.158485 -0.253846
v -7.303257 17.073544 -0.058797
v 11.958302 51.576633 -12.688308
v 11.958302 -66.609474 -12.688308
v -65.777321 -66.609467 -12.688308
v -65.777306 51.576649 -12.688308
v 11.781240 18.693092 0.094949
v 11.781240 -14.068435 0.094949
v -8.000880 -14.068433 0.094949
v -8.000876 18.693094 0.094949
v -7.989200 18.670403 0.094370
v -7.989200 18.670403 -0.251221
v -7.998046 -14.061648 -0.249885
v -7.998046 -14.061647 0.095707
v 11.941962 51.535545 44.779911
v 11.941962 51.535545 -12.681273
v 11.941962 -66.568382 -12.681273
v 11.941962 -66.568367 44.779919
v -5.473560 -1.314011 -12.440143
v -5.241480 -0.689689 -12.440143
v -5.473562 -1.314008 -4.538819
v -5.241479 -0.689689 -4.538819
v -2.349134 4.960901 -12.440143
v -3.044844 5.219519 -12.440143
v -2.812763 5.843840 -12.440143
v -2.349136 4.960900 -4.538819
v -3.044845 5.219522 -4.538819
v -2.812762 5.843841 -4.538819
v -8.961272 7.418839 -12.440143
v -9.656982 7.677456 -12.440143
v -9.424902 8.301778 -12.440143
v -8.961274 7.418839 -4.538819
v -9.656983 7.677460 -4.538819
v -9.424900 8.301779 -4.538819
v -11.460387 0.695927 -12.440143
v -12.156098 0.954545 -12.440143
v -11.924017 1.578866 -12.440143
v -11.460390 0.695926 -4.538819
v -12.156098 0.954548 -4.538819
v -11.924016 1.578867 -4.538819
v -11.460387 0.695927 -3.953241
v -12.156098 0.954545 -3.953241
v -9.402993 8.360715 -3.953241
v -11.460390 0.695926 3.948084
v -12.156098 0.954548 3.948084
v -9.402992 8.360716 3.948084
v -8.707283 8.102097 3.948084
v -4.749928 -1.798559 -4.605742
v -12.156098 0.954545 -4.605742
v -9.402993 8.360715 -4.605742
v -4.749931 -1.798560 -3.949159
v -12.156098 0.954548 -3.949159
v -9.402992 8.360716 -3.949159
v -1.996824 5.607610 -3.949159
vt 0.000000 0.000000
vt 1.000000 0.000000
vt 0.000000 1.000000
vt 1.000000 1.000000
vn 0.000000 -1.000000 0.000000
vn -0.000001 -1.000000 0.000000
vn -1.000000 0.000000 0.000000
vn -1.000000 0.000001 0.000000
vn 0.000000 0.000000 1.000000
vn -1.000000 0.000270 0.000000
vn 0.000000 1.000000 0.000000
vn -0.937333 0.348436 -0.000002
vn -0.937333 0.348436 0.000001
vn -0.348436 -0.937333 -0.000003
vn -0.348436 -0.937332 0.000005
vn -0.937333 0.348436 0.000000
vn -0.348442 -0.937330 0.000000
vn -0.348435 -0.937333 0.000000
vn -0.937331 0.348440 0.000000
vn -0.937332 0.348438 0.000000
vn -0.937330 0.348442 0.000000
vn -0.937332 0.348437 0.000000
vn -0.348441 -0.937331 0.000000
vn -0.937331 0.348441 0.000000
vn -0.348436 -0.937333 0.000000
g Cube_Cube_Material
usemtl Material
s off
f 2/1/1 5/2/1 3/3/1
f 5/2/2 6/4/2 3/3/2
g Cube_Cube_Material_vend.png
usemtl Material_vend.png
f 1/1/3 2/3/3 4/2/3
f 2/3/4 5/4/4 4/2/4
g Cube_Cube_Material_floor.png
usemtl Material_floor.png
f 19/1/5 22/2/5 21/4/5
f 19/1/5 21/4/5 20/3/5
g Cube_Cube_Material_tableTexture.png
usemtl Material_tableTexture.png
f 29/1/6 30/3/6 27/4/6
f 29/1/6 27/4/6 28/2/6
f 23/1/5 26/3/5 24/2/5
f 26/3/5 25/4/5 24/2/5
f 14/1/3 17/2/3 15/3/3
f 17/2/3 18/4/3 15/3/3
f 13/1/1 16/2/1 17/4/1
f 13/1/1 17/4/1 14/3/1
f 10/1/7 7/2/7 9/4/7
f 10/1/7 9/4/7 12/3/7
f 8/1/3 11/2/3 12/4/3
f 8/1/3 12/4/3 9/3/3
g Cube_Cube_Material_brickwall.png.001
usemtl Material_brickwall.png.001
f 33/1/3 34/3/3 32/2/3
f 34/3/3 31/4/3 32/2/3
g Cube_Cube_Material.001
usemtl Material.001
f 65/1/8 68/2/8 66/3/8
f 68/2/9 69/4/9 66/3/9
f 64/1/10 67/2/10 65/3/10
f 67/2/11 68/4/11 65/3/11
f 67/1/5 70/2/5 68/3/5
f 70/2/5 69/4/5 68/3/5
f 58/1/12 61/2/12 59/3/12
f 61/2/12 62/4/12 59/3/12
f 57/1/13 60/2/13 61/4/13
f 57/1/14 61/4/14 58/3/14
f 60/1/5 63/2/5 61/3/5
f 63/2/5 62/4/5 61/3/5
f 52/1/15 55/2/15 56/4/15
f 52/1/16 56/4/16 53/3/16
f 51/1/13 54/2/13 55/4/13
f 51/1/14 55/4/14 52/3/14
f 46/1/17 49/2/17 50/4/17
f 46/1/18 50/4/18 47/3/18
f 45/1/19 48/2/19 49/4/19
f 45/1/14 49/4/14 46/3/14
f 40/1/20 43/2/20 44/4/20
f 40/1/18 44/4/18 41/3/18
f 39/1/13 42/2/13 43/4/13
f 39/1/21 43/4/21 40/3/21
f 35/1/20 37/2/20 38/4/20
f 35/1/18 38/4/18 36/3/18
